<svg width="888" height="485.489" xmlns="http://www.w3.org/2000/svg">
 <title>breakfast</title>

 <g>
  <title>background</title>
  <rect fill="none" id="canvas_background" height="402" width="582" y="-1" x="-1"/>
 </g>
 <g>
  <title>Layer 1</title>
  <polygon id="svg_5" fill="#e6e6e6" points="791.9520263671875,300.6340026855469 789.97998046875,379.447998046875 787.5380249023438,477.1809997558594 704.4140014648438,477.1809997558594 701.552001953125,362.67498779296875 700,300.6340026855469 791.9520263671875,300.6340026855469 "/>
  <rect id="svg_6" fill="#f5afc7" height="155.95002" width="11.76981" y="258.70393" x="739.72312"/>
  <path id="svg_7" fill="#3f3d56" d="m786.06676,360.019777l-2.22611,112.02l-75.76674,0l-2.60826,-131.24365a51.63393,51.63393 0 0 1 40.82688,5.61536c12.65908,7.48707 26.88047,11.51726 39.77423,13.60829z"/>
  <rect id="svg_8" fill="#e6e6e6" height="10.79992" width="10.79992" y="372.63032" x="716.03074"/>
  <rect id="svg_9" fill="#e6e6e6" height="10.79992" width="10.79992" y="350.56192" x="723.38688"/>
  <rect id="svg_10" fill="#e6e6e6" transform="rotate(36.562591552734375 339.5751647949218,-660.9210815429688) " height="10.79992" width="10.79992" y="-85.105442" x="1275.999005"/>
  <rect id="svg_11" fill="#e6e6e6" transform="rotate(36.562591552734375 354.81433105468705,-668.7791748046874) " height="10.79992" width="10.79992" y="-73.827855" x="1310.751091"/>
  <rect id="svg_12" fill="#e6e6e6" transform="rotate(36.562591552734375 354.8730163574218,-646.8884887695314) " height="10.79992" width="10.79992" y="-40.902969" x="1277.707176"/>
  <circle id="svg_13" fill="#3f3d56" r="2.20684" cy="344.03508" cx="769.14765"/>
  <circle id="svg_14" fill="#3f3d56" r="2.20684" cy="329.32281" cx="724.27524"/>
  <circle id="svg_15" fill="#3f3d56" r="2.20684" cy="313.87493" cx="761.79152"/>
  <circle id="svg_16" fill="#f5afc7" r="241.75402" cy="241.75402" cx="444.50808"/>
  <path id="svg_17" opacity="0.2" d="m444.50808,418.211137a176.45595,176.45595 0 1 1 124.77436,-51.68275a175.30352,175.30352 0 0 1 -124.77436,51.68275zm0,-342.0314c-91.29808,0 -165.5743,74.27621 -165.5743,165.57429c0,91.2977 74.27622,165.5743 165.5743,165.5743c91.2977,0 165.57429,-74.2766 165.57429,-165.5743c0,-91.29808 -74.27659,-165.57429 -165.57429,-165.57429z"/>
  <circle id="svg_18" fill="#3f3d56" r="171.0157" cy="241.75402" cx="444.50808"/>
  <path id="svg_19" fill="#ff6584" d="m317.32742,173.371927a21.704,21.704 0 1 1 38.68118,-19.69819l48.31632,94.87836a21.704,21.704 0 1 1 -38.68118,19.69819l-48.31632,-94.87836z"/>
  <path id="svg_20" opacity="0.2" d="m322.71655,183.954507l-2.23,-4.379c11.12916,-8.64736 24.19788,-15.007 38.68118,-19.69819l2.23,4.379c-15.67541,3.26426 -29.01157,9.30519 -38.68118,19.69819z"/>
  <path id="svg_21" opacity="0.2" d="m333.12314,204.389847l-2.23,-4.379c11.12915,-8.64736 24.19788,-15.007 38.68117,-19.69819l2.23,4.379c-15.6754,3.26426 -29.01156,9.30521 -38.68117,19.69819z"/>
  <path id="svg_22" opacity="0.2" d="m343.52973,224.825187l-2.23,-4.379c11.12915,-8.64736 24.19788,-15.007 38.68118,-19.69819l2.23,4.379c-15.67541,3.26426 -29.01156,9.30521 -38.68118,19.69819z"/>
  <path id="svg_23" opacity="0.2" d="m353.93632,245.260507l-2.23,-4.379c11.12916,-8.64736 24.19788,-15.007 38.68118,-19.69819l2.23,4.379c-15.67541,3.26428 -29.01156,9.30519 -38.68118,19.69819z"/>
  <path id="svg_24" opacity="0.2" d="m364.34292,265.695867l-2.23,-4.379c11.12916,-8.64736 24.19788,-15.007 38.68118,-19.69819l2.23,4.379c-15.67542,3.26426 -29.01157,9.30521 -38.68118,19.69819z"/>
  <path id="svg_25" fill="#ff6584" d="m281.07906,208.890937a21.704,21.704 0 1 1 38.68118,-19.6982l48.31632,94.87837a21.704,21.704 0 0 1 -38.68118,19.69819l-48.31632,-94.87836z"/>
  <path id="svg_26" opacity="0.2" d="m286.46819,219.473507l-2.23,-4.379c11.12916,-8.64736 24.19788,-15.007 38.68118,-19.69819l2.23,4.379c-15.67537,3.26427 -29.01157,9.30519 -38.68118,19.69819z"/>
  <path id="svg_27" opacity="0.2" d="m296.87478,239.908857l-2.23,-4.379c11.12915,-8.64736 24.19788,-15.007 38.68118,-19.69819l2.23,4.379c-15.67541,3.26426 -29.01156,9.30521 -38.68118,19.69819z"/>
  <path id="svg_28" opacity="0.2" d="m307.28137,260.344197l-2.23,-4.379c11.12915,-8.64736 24.19788,-15.007 38.68118,-19.69819l2.23,4.379c-15.67541,3.26426 -29.01155,9.30521 -38.68118,19.69819z"/>
  <path id="svg_29" opacity="0.2" d="m317.688,280.779507l-2.23,-4.379c11.12916,-8.64736 24.19788,-15.007 38.68118,-19.69819l2.23,4.379c-15.67545,3.26429 -29.0116,9.30524 -38.68118,19.69819z"/>
  <path id="svg_30" opacity="0.2" d="m328.09456,301.214877l-2.23,-4.379c11.12916,-8.64736 24.19788,-15.007 38.68118,-19.69819l2.23,4.379c-15.67542,3.26426 -29.01157,9.30521 -38.68118,19.69819z"/>
  <path id="svg_31" fill="#e6e6e6" d="m558.77766,247.195437l0.15257,0.00013a25.8881,25.8881 0 0 0 24.23924,-16.23619a84.50284,84.50284 0 0 0 5.9231,-31.69393c-0.27144,-45.91073 -37.62223,-83.57515 -83.52936,-84.21021a84.74394,84.74394 0 0 0 -35.27687,162.32018a25.66668,25.66668 0 0 0 28.50566,-5.28585a84.45815,84.45815 0 0 1 59.98566,-24.89413z"/>
  <circle id="svg_32" fill="#f9a825" r="27.98439" cy="193.55868" cx="515.24639"/>
  <circle id="svg_33" fill="#3f3d56" r="3.29669" cy="187.11516" cx="454.42624"/>
  <circle id="svg_34" fill="#3f3d56" r="3.29669" cy="190.22453" cx="345.59806"/>
  <circle id="svg_35" fill="#3f3d56" r="3.29669" cy="152.94948" cx="471.99609"/>
  <circle id="svg_36" fill="#3f3d56" r="3.29669" cy="247.97277" cx="471.90243"/>
  <circle id="svg_37" fill="#3f3d56" r="3.29669" cy="146.14069" cx="537.19934"/>
  <circle id="svg_38" fill="#3f3d56" r="3.29669" cy="236.31261" cx="324.20705"/>
  <circle id="svg_39" fill="#3f3d56" r="3.29669" cy="283.7306" cx="348.30472"/>
  <circle id="svg_40" fill="#ff6584" r="12.43751" cy="289.94935" cx="499.69951"/>
  <path id="svg_41" opacity="0.2" d="m509.02764,290.726707a9.32813,9.32813 0 0 1 -18.65626,0"/>
  <path id="svg_42" opacity="0.2" d="m490.37138,289.172017a9.32813,9.32813 0 0 1 18.65626,0"/>
  <ellipse id="svg_43" fill="#ff6584" ry="1.16602" rx="0.77734" cy="285.67396" cx="495.03545"/>
  <ellipse id="svg_44" fill="#ff6584" ry="1.16602" rx="0.77734" cy="284.11927" cx="499.69951"/>
  <ellipse id="svg_45" fill="#ff6584" ry="1.16602" rx="0.77734" cy="294.22475" cx="499.69951"/>
  <ellipse id="svg_46" fill="#ff6584" ry="1.16602" rx="0.77734" cy="288.00599" cx="504.36357"/>
  <ellipse id="svg_47" fill="#ff6584" ry="1.16602" rx="0.77734" cy="296.55678" cx="503.58623"/>
  <ellipse id="svg_48" fill="#ff6584" ry="1.16602" rx="0.77734" cy="292.67006" cx="494.2581"/>
  <circle id="svg_49" fill="#ff6584" r="12.43751" cy="256.52356" cx="524.57452"/>
  <path id="svg_50" opacity="0.2" d="m533.90265,257.300907a9.32813,9.32813 0 0 1 -18.65626,0"/>
  <path id="svg_51" opacity="0.2" d="m515.24639,255.746227a9.32813,9.32813 0 0 1 18.65626,0"/>
  <ellipse id="svg_52" fill="#ff6584" ry="1.16602" rx="0.77734" cy="252.24816" cx="519.91046"/>
  <ellipse id="svg_53" fill="#ff6584" ry="1.16602" rx="0.77734" cy="250.69348" cx="524.57452"/>
  <ellipse id="svg_54" fill="#ff6584" ry="1.16602" rx="0.77734" cy="260.79895" cx="524.57452"/>
  <ellipse id="svg_55" fill="#ff6584" ry="1.16602" rx="0.77734" cy="254.5802" cx="529.23859"/>
  <ellipse id="svg_56" fill="#ff6584" ry="1.16602" rx="0.77734" cy="263.13098" cx="528.46124"/>
  <ellipse id="svg_57" fill="#ff6584" ry="1.16602" rx="0.77734" cy="259.24426" cx="519.13311"/>
  <circle id="svg_58" fill="#f5afc7" r="12.43751" cy="273.62513" cx="549.44953"/>
  <path id="svg_59" opacity="0.2" d="m558.77766,274.402507a9.32813,9.32813 0 0 1 -18.65626,0"/>
  <path id="svg_60" opacity="0.2" d="m540.1214,272.847797a9.32813,9.32813 0 0 1 18.65626,0"/>
  <ellipse id="svg_61" fill="#f5afc7" ry="1.16602" rx="0.77734" cy="269.34974" cx="544.78547"/>
  <ellipse id="svg_62" fill="#f5afc7" ry="1.16602" rx="0.77734" cy="267.79505" cx="549.44953"/>
  <ellipse id="svg_63" fill="#f5afc7" ry="1.16602" rx="0.77734" cy="277.90052" cx="549.44953"/>
  <ellipse id="svg_64" fill="#f5afc7" ry="1.16602" rx="0.77734" cy="271.68177" cx="554.1136"/>
  <ellipse id="svg_65" fill="#f5afc7" ry="1.16602" rx="0.77734" cy="280.23255" cx="553.33625"/>
  <ellipse id="svg_66" fill="#f5afc7" ry="1.16602" rx="0.77734" cy="276.34583" cx="544.00812"/>
  <circle id="svg_67" fill="#f5afc7" r="12.43751" cy="275.17982" cx="487.262"/>
  <path id="svg_68" opacity="0.2" d="m496.59013,275.957167a9.32813,9.32813 0 0 1 -18.65626,0"/>
  <path id="svg_69" opacity="0.2" d="m477.93387,274.402507a9.32813,9.32813 0 0 1 18.65626,0"/>
  <ellipse id="svg_70" fill="#f5afc7" ry="1.16602" rx="0.77734" cy="270.90442" cx="482.59794"/>
  <ellipse id="svg_71" fill="#f5afc7" ry="1.16602" rx="0.77734" cy="269.34974" cx="487.262"/>
  <ellipse id="svg_72" fill="#f5afc7" ry="1.16602" rx="0.77734" cy="279.45521" cx="487.262"/>
  <ellipse id="svg_73" fill="#f5afc7" ry="1.16602" rx="0.77734" cy="273.23646" cx="491.92607"/>
  <ellipse id="svg_74" fill="#f5afc7" ry="1.16602" rx="0.77734" cy="281.78724" cx="491.14872"/>
  <ellipse id="svg_75" fill="#f5afc7" ry="1.16602" rx="0.77734" cy="277.90052" cx="481.8206"/>
  <circle id="svg_76" fill="#f5afc7" r="12.43751" cy="280.62122" cx="515.24639"/>
  <path id="svg_77" opacity="0.2" d="m524.57452,281.398577a9.32813,9.32813 0 1 1 -18.65626,0"/>
  <path id="svg_78" opacity="0.2" d="m505.91826,279.843887a9.32813,9.32813 0 1 1 18.65626,0"/>
  <ellipse id="svg_79" fill="#f5afc7" ry="1.16602" rx="0.77734" cy="276.34583" cx="510.58233"/>
  <ellipse id="svg_80" fill="#f5afc7" ry="1.16602" rx="0.77734" cy="274.79114" cx="515.24639"/>
  <ellipse id="svg_81" fill="#f5afc7" ry="1.16602" rx="0.77734" cy="284.89662" cx="515.24639"/>
  <ellipse id="svg_82" fill="#f5afc7" ry="1.16602" rx="0.77734" cy="278.67786" cx="519.91046"/>
  <ellipse id="svg_83" fill="#f5afc7" ry="1.16602" rx="0.77734" cy="287.22865" cx="519.13311"/>
  <ellipse id="svg_84" fill="#f5afc7" ry="1.16602" rx="0.77734" cy="283.34193" cx="509.80498"/>
  <circle id="svg_85" fill="#ff6584" r="12.43751" cy="293.83607" cx="534.68"/>
  <path id="svg_86" opacity="0.2" d="m544.00812,294.613427a9.32812,9.32812 0 1 1 -18.65625,0"/>
  <path id="svg_87" opacity="0.2" d="m525.35187,293.058737a9.32812,9.32812 0 1 1 18.65625,0"/>
  <ellipse id="svg_88" fill="#ff6584" ry="1.16602" rx="0.77734" cy="289.56068" cx="530.01593"/>
  <ellipse id="svg_89" fill="#ff6584" ry="1.16602" rx="0.77734" cy="288.00599" cx="534.68"/>
  <ellipse id="svg_90" fill="#ff6584" ry="1.16602" rx="0.77734" cy="298.11147" cx="534.68"/>
  <ellipse id="svg_91" fill="#ff6584" ry="1.16602" rx="0.77734" cy="291.89271" cx="539.34406"/>
  <ellipse id="svg_92" fill="#ff6584" ry="1.16602" rx="0.77734" cy="300.4435" cx="538.56672"/>
  <ellipse id="svg_93" fill="#ff6584" ry="1.16602" rx="0.77734" cy="296.55678" cx="529.23859"/>
  <circle id="svg_94" fill="#3f3d56" r="3.29669" cy="246.41808" cx="374.73442"/>
  <polygon id="svg_95" fill="#f9a825" points="464.345 366.08 385.17 344.123 388.203 332.857 467.378 354.815 464.345 366.08"/>
  <path id="svg_96" fill="#f9a825" d="m452.73806,362.314937a218.26828,218.26828 0 0 1 -82.07767,0l0,-11.67831a250.99129,250.99129 0 0 0 82.07767,0l0,11.67831z"/>
  <path id="svg_97" fill="#f9a825" d="m461.17595,327.280027a218.26828,218.26828 0 0 1 -82.07767,0l0,-11.67831a250.99184,250.99184 0 0 0 82.07767,0l0,11.67831z"/>
  <path id="svg_98" fill="#f9a825" d="m489.558,341.293987a218.26833,218.26833 0 0 1 -82.07768,0l0,-11.6783a250.9919,250.9919 0 0 0 82.07768,0l0,11.6783z"/>
  <path id="svg_99" fill="#f9a825" d="m496.46168,354.529397a218.26787,218.26787 0 0 1 -82.07767,0l0,-11.6783a250.99184,250.99184 0 0 0 82.07767,0l0,11.6783z"/>
  <polygon id="svg_100" fill="#f9a825" points="520.531 371.824 439.554 385.426 437.676 373.904 518.652 360.302 520.531 371.824"/>
  <path id="svg_101" fill="#f9a825" d="m508.43494,373.321277a219.97,219.97 0 0 1 -74.58008,34.78439l-4.80446,-10.61152a252.95437,252.95437 0 0 0 74.58007,-34.78439l4.80447,10.61152z"/>
  <path id="svg_102" fill="#f9a825" d="m501.68866,337.910757a219.96991,219.96991 0 0 1 -74.58007,34.78439l-4.80446,-10.61152a252.95437,252.95437 0 0 0 74.58007,-34.78439l4.80446,10.61152z"/>
  <path id="svg_103" fill="#f9a825" d="m533.24339,338.616327a219.96977,219.96977 0 0 1 -74.58008,34.78439l-4.80446,-10.61151a252.95471,252.95471 0 0 0 74.58008,-34.7844l4.80446,10.61152z"/>
  <path id="svg_104" fill="#f9a825" d="m544.96153,347.716927a219.96991,219.96991 0 0 1 -74.58007,34.78439l-4.80446,-10.61152a252.95437,252.95437 0 0 0 74.58007,-34.78439l4.80446,10.61152z"/>
  <rect id="svg_105" fill="#00bf71" height="3.88672" width="3.88672" y="324.92984" x="442.95339"/>
  <rect id="svg_106" fill="#00bf71" height="3.88672" width="3.88672" y="392.55878" x="454.61355"/>
  <rect id="svg_107" fill="#00bf71" height="3.88672" width="3.88672" y="324.92984" x="392.42602"/>
  <rect id="svg_108" fill="#00bf71" height="3.88672" width="3.88672" y="373.12517" x="482.59794"/>
  <rect id="svg_109" fill="#00bf71" height="3.88672" width="3.88672" y="350.5822" x="484.92997"/>
  <rect id="svg_110" fill="#00bf71" transform="rotate(34.15571975708008 250.70796203613287,-437.19067382812506) " height="3.10938" width="5.44141" y="108.209516" x="825.563682"/>
  <rect id="svg_111" fill="#00bf71" transform="rotate(34.15571975708008 263.4194946289064,-461.4654541015626) " height="3.10938" width="5.44141" y="92.485526" x="884.138515"/>
  <rect id="svg_112" fill="#00bf71" transform="rotate(34.15571975708008 262.0579833984375,-427.4945983886719) " height="3.10938" width="5.44141" y="141.225912" x="826.808233"/>
  <rect id="svg_113" fill="#00bf71" transform="rotate(124.15572357177734 1249.1771240234373,182.37779235839838) " height="3.10938" width="5.44141" y="747.988932" x="1845.798484"/>
  <rect id="svg_114" fill="#00bf71" transform="rotate(124.15572357177734 1286.4520263671873,173.506118774414) " height="3.10938" width="5.44141" y="744.558669" x="1904.061676"/>
  <rect id="svg_115" fill="#00bf71" transform="matrix(-0.56144,0.82751,-0.82751,-0.56144,1358.40581,98.06043) " height="3.10938" width="5.44141" y="552.39629" x="673.57842"/>
 </g>
</svg>