<?xml version="1.0" encoding="UTF-8"?>
<svg width="100px" height="100px" viewBox="0 0 100 100" version="1.1" xmlns="http://www.w3.org/2000/svg" xmlns:xlink="http://www.w3.org/1999/xlink">
    <!-- Generator: Sketch 52.6 (67491) - http://www.bohemiancoding.com/sketch -->
    <title>Victory Hands (270C)</title>
    <desc>Created with Sketch.</desc>
    <g id="Victory-Hands-(270C)" stroke="none" stroke-width="1" fill="none" fill-rule="evenodd">
        <path d="M51.6505733,92.6655738 C62.4608173,92.6655738 70.4587513,84.2573598 75.6443753,67.4409319 C74.9388531,56.4164919 74.5381083,50.3764512 74.4421409,49.3208096 C74.2981898,47.7373472 73.7626428,41.8345379 75.9613539,30.2558252 C78.1600649,18.6771126 78.2417266,16.676147 78.5747661,13.6088495 C78.9078056,10.541552 78.4624507,7.17430142 73.686702,6.04174354 C68.9109533,4.90918565 68.0513616,7.11059916 67.3267263,12.3587155 C66.602091,17.6068319 63.6897239,29.1326812 63.0935874,32.6338653 C62.4974508,36.1350494 61.5593856,40.3512762 60.5241351,40.3000915 C59.4888847,40.2489069 58.7414077,37.2518374 57.4698976,32.6338653 C56.1983874,28.0158931 54.1598585,19.3668823 53.1320259,15.0132452 C52.1041933,10.6596082 49.9124789,5.38569793 43.2829398,7.08023298 C36.6534008,8.77476802 40.3398112,12.7029353 41.0862665,15.7555878 C41.5839033,17.7906895 43.3198354,25.5087182 46.2940625,38.9096739 C44.1404185,36.4357214 41.9597255,35.4854225 39.7519835,36.0587773 C37.5442415,36.6321321 36.1675702,39.4532255 35.6219695,44.5220576 C34.0162002,41.3035641 31.4649102,39.8964817 27.9680996,40.3008103 C22.7228837,40.9073032 22.7221121,45.2152673 22.8119279,47.9246249 C23.4001022,65.6673193 22.2380718,76.4961442 29.5350214,84.8126709 C33.8141889,89.6897516 37.6381904,91.5473126 41.8531155,92.2495997 C44.8255919,92.7448712 47.9924919,92.6655738 51.6505733,92.6655738 Z" id="Path-12" fill="#CC9200" transform="translate(50.726348, 49.211005) rotate(1.000000) translate(-50.726348, -49.211005) "></path>
        <path d="M48.184652,94.5505679 C64.400018,94.5505679 71.5934776,85.66437 74.3103634,76.6460823 C76.1216206,70.6338906 75.6375619,64.559218 72.8581872,58.4220646 C72.3975978,53.4122402 72.1193194,50.3795072 72.023352,49.3238656 C71.8794009,47.7404033 71.3438539,41.8375939 73.542565,30.2588813 C75.7412761,18.6801686 76.1914283,16.6697326 76.5244678,13.602435 C76.8575072,10.5351375 76.2548644,7.12666771 72.8581872,6.24506874 C69.46151,5.36346977 65.6325728,7.11365518 64.9079374,12.3617716 C64.1833021,17.6098879 61.270935,29.1357372 60.6747985,32.6369213 C60.0786619,36.1381054 59.1405967,40.3543322 58.1053463,40.3031476 C57.0700958,40.2519629 56.3226189,37.2548934 55.0511087,32.6369213 C53.7795986,28.0189492 51.7410696,19.3699383 50.713237,15.0163013 C49.6854044,10.6626642 47.5985512,5.49848225 42.3185282,6.89097437 C37.0385052,8.28346649 37.9210223,12.7059913 38.6674776,15.7586438 C39.1651145,17.7937455 40.6486572,24.5107007 43.1181059,35.9095093 C41.4657741,35.1237567 39.5357371,35.0175578 37.3279951,35.5909126 C35.1202531,36.1642673 33.6635261,37.9400725 32.957814,40.9183279 C31.6403153,39.1211109 29.2331607,38.4246666 25.7363501,38.8289952 C20.4911341,39.4354881 20.3033232,45.2183233 20.393139,47.927681 C20.9813133,65.6703753 19.819283,76.4992002 27.1162325,84.815727 C34.413182,93.1322537 39.3394684,94.5505679 48.184652,94.5505679 Z" id="Path-12" fill="#FDCA47"></path>
        <path d="M28.4,58.2739954 C33.3595992,58.2739954 34.9135043,54.7475115 34.9135043,52.5477902 C34.9135043,50.3480689 34.7791644,45.6799946 34.3771688,43.8162034 C33.9751733,41.9524121 33.5690303,40.7911066 32.9646757,40.2955533 C32.5617726,39.9651844 32.1281947,39.8 31.663942,39.8 C32.1918662,41.2987296 32.6254441,43.1487603 32.9646757,45.3500922 C33.473523,48.6520901 33.3629725,50.9419907 32.9646757,52.8383174 C32.5663788,54.7346441 31.4127699,57.213985 28.4,58.2739954 Z" id="Path-13" fill="#CC9200"></path>
        <path d="M47.1027951,42.7939809 C46.5382386,38.6070394 45.5690303,37.1911066 44.9646757,36.6955533 C44.5617726,36.3651844 43.9470999,36.0962504 43.1206576,35.8887513 C43.7750907,36.863406 44.1948197,37.6201538 44.3798446,38.1589949 C44.7599323,39.2659103 45.1864614,41.149986 45.3330194,42.5364121 C45.6833811,45.8508041 45.7584938,46.999719 45.7584938,49.3748674 C45.7584938,50.4805019 45.5824604,51.8954468 45.7584938,52.0064644 C46.2525236,52.3180301 46.6549623,52.0064644 47.3198727,52.0064644 C47.811211,52.0064644 47.6673515,46.9809224 47.1027951,42.7939809 Z" id="Path-13-Copy" fill="#CC9200"></path>
        <path d="M27.9834662,85.73341 C33.9643769,90.8198319 41.1171341,93.0455119 49.4417379,92.4104498 C61.9286434,91.4578567 67.3280097,88.3704096 71.7417782,79.2232199 C76.1555467,70.0760303 71.6291793,59.5178862 70.1579232,58.3614799 C68.686667,57.2050737 61.7797144,53.2032783 59.2886648,52.9284517 C56.7976151,52.6536251 52.212547,52.9284517 48.3020047,52.9284517 C44.3914624,52.9284517 40.9671367,52.1904088 39.8826088,52.9284517 C38.7980808,53.6664945 38.2383665,60.444996 41.941613,62.5218549 C45.6448595,64.5987138 52.5805905,64.0370927 54.1051087,64.2916925 C55.6143437,64.54374 57.7837444,65.1044824 58.049235,67.537239 C58.2450769,69.3317865 58.3429978,70.7493804 58.3429978,71.7900204 C57.372545,68.4008808 55.9599153,66.5147375 54.1051087,66.1315905 C51.3228988,65.55687 48.0606138,65.8061748 45.2588197,65.6133459 C42.4570256,65.420517 38.7563305,63.293589 37.701799,60.2989618 C36.6472675,57.3043346 36.1176677,53.3728615 39.1478285,51.1859631 C40.7271084,50.0461805 43.0094502,51.1859631 47.4087432,51.1859631 C51.8080362,51.1859631 57.8855194,50.9926104 60.0636222,51.5121391 C62.241725,52.0316678 69.6907509,56.1762679 71.7417782,57.2688739 C73.7928055,58.3614799 75.0856469,63.5067447 75.4639394,67.537239 C75.8422319,71.5677333 76.7908198,86.4473496 59.2886648,93.0447421 C53.6628623,95.1653739 44.446131,94.8232499 39.1478285,93.5620208 C35.7426631,92.7514417 32.021209,90.1419048 27.9834662,85.73341 Z" id="Path-14" fill="#CC9200"></path>
        <path d="M34.2257979,54.4735363 C34.6328714,56.049672 35.1934159,57.128798 35.9074314,57.7109142 C36.6214468,58.2930305 37.3292912,58.5840887 38.0309645,58.5840887 L38.0309645,56.5288125 C37.0584217,56.072361 36.4037938,55.7109015 36.0670808,55.4444339 C35.3041078,54.8406331 35.018717,53.2531405 34.7139546,53.0751068 C34.2074469,52.7792192 34.044728,53.2453623 34.2257979,54.4735363 Z" id="Path-15" fill="#CC9200"></path>
        <path d="M36.8,75.1689932 C37.1862405,71.3231328 38.8270497,68.4668355 41.7224274,66.6001013 C44.6178052,64.7333671 47.6742947,63.9329871 50.8918958,64.1989613 L50.8918958,65.7689794 C46.8403622,66.1237156 43.7838728,66.9970333 41.7224274,68.3889324 C39.6609821,69.7808315 38.020173,72.0408518 36.8,75.1689932 Z" id="Path-16" fill="#CC9200"></path>
    </g>
</svg>